<mxfile host="app.diagrams.net" modified="2022-04-08T17:35:06.244Z" agent="5.0 (Windows NT 10.0; Win64; x64) AppleWebKit/537.36 (KHTML, like Gecko) Chrome/100.0.4896.79 Safari/537.36" etag="ptim4TOrs200GOM0w-RQ" version="17.4.1" type="github">
  <diagram id="mk2cn1SJCswWF56iGvcB" name="Page-1">
    <mxGraphModel dx="975" dy="749" grid="1" gridSize="10" guides="1" tooltips="1" connect="1" arrows="1" fold="1" page="1" pageScale="1" pageWidth="850" pageHeight="1100" math="0" shadow="0">
      <root>
        <mxCell id="0" />
        <mxCell id="1" parent="0" />
      </root>
    </mxGraphModel>
  </diagram>
</mxfile>
